<svg xmlns="http://www.w3.org/2000/svg" width="40" height="40" viewBox="0 0 30 30" version="1.2"><defs><clipPath id="a"><path d="M11.375 21h5.11v5.129h-5.11zm0 0"/></clipPath><clipPath id="b"><path d="M21 21h5v5.129h-5zm0 0"/></clipPath><clipPath id="c"><path d="M1.156 2.902h28.098v18.016H1.156zm0 0"/></clipPath></defs><g clip-path="url(#a)"><path d="M13.684 22.367a1.438 1.438 0 0 1 1.472 1.41v.043c.012.801-.629 1.457-1.422 1.465a1.444 1.444 0 0 1-1.457-1.433v-.032c0-.789.621-1.437 1.407-1.453zm-.032-.851a2.298 2.298 0 0 0-2.222 2.304 2.3 2.3 0 0 0 2.27 2.328 2.298 2.298 0 0 0 2.308-2.285v-.043a2.301 2.301 0 0 0-2.29-2.308c-.019 0-.046 0-.066.004" fill="#ffffff"/></g><g clip-path="url(#b)"><path d="M23.254 22.367a1.441 1.441 0 0 1 1.476 1.41v.043c.008.801-.628 1.457-1.425 1.465a1.436 1.436 0 0 1-1.453-1.433v-.032a1.438 1.438 0 0 1 1.402-1.453zm-.016-.867A2.301 2.301 0 0 0 21 23.82c-.008 1.274 1.008 2.317 2.273 2.325a2.296 2.296 0 0 0 2.305-2.293c.004-.008.004-.02 0-.032a2.298 2.298 0 0 0-2.273-2.32h-.067" fill="#ffffff"/></g><g clip-path="url(#c)"><path d="M8.402 7.719h19.926l-2.293 9.222H10.652zM1.578 2.902a.424.424 0 0 0-.422.43c0 .234.188.422.422.426h3.203c1.043 0 1.95.715 2.2 1.738l3.23 13.219a2.838 2.838 0 0 0 2.75 2.172h13.898a.43.43 0 1 0 0-.86H12.961a1.984 1.984 0 0 1-1.926-1.515l-.176-.711H26.7l2.543-10.227a.573.573 0 0 0-.414-.691.4.4 0 0 0-.137-.02h-20.5L7.81 5.29A3.126 3.126 0 0 0 4.78 2.902H1.578" fill="#ffffff"/></g></svg>