<svg xmlns="http://www.w3.org/2000/svg" width="40" height="40" viewBox="0 0 30 30" version="1.2"><defs><clipPath id="a"><path d="M.484 1.559h29.032V27.69H.484zm0 0"/></clipPath></defs><g fill="#ffffff" clip-path="url(#a)"><path d="M.629 9.188V9.539c.305 9.344 13.41 17.91 13.95 18.262h.038c.035.039.074.039.113.039.04 0 .04 0 .079.039.074 0 .113.039.191.039s.117 0 .191-.04c.04 0 .04 0 .079-.038.039 0 .078-.04.113-.04h.039c2.46-1.679 4.805-3.558 6.918-5.632 4.535-4.457 6.918-8.719 7.031-12.629v-.117-.234-.079c-.152-4.304-3.34-7.55-7.492-7.55-2.805 0-5.418 1.488-6.879 3.953-1.46-2.465-4.074-3.953-6.879-3.953-4.187 0-7.34 3.207-7.492 7.55v.079zM8.12 3.125A6.458 6.458 0 0 1 14.27 7.66c0 .04.039.078.039.117 0 .04.039.04.039.04 0 .038.039.038.039.078l.035.039.039.039c.039 0 .039.039.078.039.04 0 .04.039.078.039.035.039.074.039.113.039h.04c.039 0 .078 0 .113.039h.156c.04 0 .078 0 .113-.04h.04c.038 0 .078-.038.117-.038.039 0 .074-.04.074-.04l.039-.038c.039 0 .039-.04.078-.078l.04-.04c0-.039.038-.039.038-.078l.035-.039c.04-.039.04-.078.04-.117.847-2.7 3.343-4.574 6.148-4.535 3.344 0 5.918 2.621 5.957 6.18 0 7.742-10.528 15.406-12.758 16.933-2.23-1.527-12.758-9.191-12.836-16.933.078-3.52 2.613-6.141 5.957-6.141zm0 0"/></g></svg>