<svg xmlns="http://www.w3.org/2000/svg" width="40" height="40" viewBox="0 0 30 30" version="1.2"><defs><clipPath id="a"><path d="M7.203 2.89H25.18v26.044H7.203zm0 0"/></clipPath><clipPath id="b"><path d="M4.855 0H25v5H4.855zm0 0"/></clipPath><clipPath id="c"><path d="M4.855 1H9v28H4.855zm0 0"/></clipPath></defs><g clip-path="url(#a)"><path d="M16.191 2.922h8.41c.32 0 .579.258.579.578v24.855c0 .32-.258.579-.578.579h-8.41v-1.157h7.828V4.078H16.19zm-8.406 0h8.406v1.156H8.363v23.7h7.828v1.156H7.785a.577.577 0 0 1-.578-.579V3.5c0-.32.258-.578.578-.578" fill="#fff"/></g><g clip-path="url(#b)"><path d="M7.633 4.074a.576.576 0 1 0-.035-1.152c-.676.023-1.23-.207-1.48-.524a.4.4 0 0 1-.098-.226c0-.063.039-.137.117-.219.406-.418 1.472-.758 3.535-.77v.004h13.367l.793 2.165a.578.578 0 0 0 1.086-.39L24 .452a.58.58 0 0 0-.559-.422H9.668C7.242.043 5.898.54 5.305 1.152c-.297.309-.434.653-.442 1.004-.004.344.121.672.348.961.453.57 1.367.992 2.422.957" fill="#fff"/></g><g clip-path="url(#c)"><path d="M6.035 2.137a.58.58 0 0 0-1.16 0V25.94c0 .024 0 .051.004.075.05.742.305 1.347.746 1.84.434.48 1.043.828 1.813 1.054a.577.577 0 0 0 .714-.39.576.576 0 0 0-.39-.72c-.563-.163-.989-.402-1.278-.718-.265-.293-.418-.672-.449-1.14V2.136" fill="#fff"/></g><path d="M13.875 6.969a.58.58 0 0 0 0 1.156h4.637a.58.58 0 0 0 0-1.156h-4.637" fill="#fff"/><path d="M11.559 9.281a.58.58 0 0 0 0 1.156h9.27a.58.58 0 0 0 0-1.156h-9.27" fill="#fff"/><path d="M20.73 19.2l-1.625 4.991h.004a.302.302 0 0 1-.28.2H16.19v-.578h2.43l1.445-4.43h-3.875v-.578h4.274a.29.29 0 0 1 .289.289.245.245 0 0 1-.024.105zm-4.539 5.19h-2.636a.29.29 0 0 1-.282-.218l-1.625-4.988.274-.09-.274.09a.29.29 0 0 1 .184-.368.417.417 0 0 1 .098-.011h4.261v.578h-3.87l1.445 4.43h2.425v.578" fill="#fff"/><path d="M12.457 19.234c.078.141.254.188.39.11a.288.288 0 0 0 .11-.395 1.635 1.635 0 0 1-.215-.73c-.027-.422.238-.723.528-1.047.378-.426.785-.879.812-1.688.012-.359.16-.687.398-.921.227-.231.54-.372.887-.372.617 0 .856.317 1.117.657.258.336.536.695 1.102.922.543.214 1.078.453 1.465.773.36.297.594.676.594 1.195 0 .219-.036.43-.098.625-.07.203-.172.39-.297.555a.286.286 0 0 0 .055.402.288.288 0 0 0 .406-.054 2.511 2.511 0 0 0 .516-1.528c0-.718-.32-1.234-.805-1.636-.45-.375-1.035-.637-1.625-.872-.418-.164-.64-.457-.852-.734-.351-.457-.675-.883-1.578-.883a1.82 1.82 0 0 0-1.297.54c-.336.335-.547.8-.566 1.312-.02.598-.356.973-.668 1.324-.371.418-.715.805-.672 1.465.012.176.043.348.09.512.05.164.117.32.203.468" fill="#fff"/><path d="M14.488 19.957a.287.287 0 0 0-.351-.203.281.281 0 0 0-.207.348l.812 3.125a.29.29 0 0 0 .352.207.29.29 0 0 0 .207-.352l-.813-3.125" fill="#fff"/><path d="M18.328 20.102a.287.287 0 0 0-.207-.348.284.284 0 0 0-.351.203l-.813 3.125a.287.287 0 0 0 .203.352.295.295 0 0 0 .356-.207l.812-3.125" fill="#fff"/><path d="M16.484 20.031a.288.288 0 1 0-.578 0l-.004 3.121a.288.288 0 1 0 .575 0l.007-3.12" fill="#fff"/></svg>