<svg xmlns="http://www.w3.org/2000/svg" width="40" height="40" viewBox="0 0 30 30" version="1.2"><defs><clipPath id="a"><path d="M.484 0h29.032v29.031H.484zm0 0"/></clipPath></defs><g fill="#ffffff" clip-path="url(#a)"><path d="M15 0C6.996 0 .484 6.512.484 14.516c0 4.289 1.871 8.148 4.84 10.808v.012l.207.18c.04.03.078.058.117.09a15.925 15.925 0 0 0 1.028.792c.293.207.594.403.902.586.05.032.102.059.152.09.34.196.684.38 1.036.547l.011.008a14.425 14.425 0 0 0 3.594 1.16c.04.008.074.012.113.02.387.066.778.12 1.172.16.047.004.09.004.137.008a13.724 13.724 0 0 0 2.414 0c.047-.004.09-.004.137-.008.394-.04.785-.094 1.172-.16.039-.008.074-.012.113-.02.398-.074.793-.16 1.18-.27l.046-.011c.82-.227 1.614-.52 2.368-.88.004-.003.007-.003.011-.007.352-.168.696-.351 1.036-.547.05-.031.101-.058.152-.09a13.704 13.704 0 0 0 1.125-.746c.277-.203.543-.414.805-.633.039-.03.078-.058.117-.09l.207-.18v-.01c2.969-2.66 4.84-6.52 4.84-10.81C29.516 6.513 23.004 0 15 0zm0 14.516a4.846 4.846 0 0 1-4.84-4.84A4.843 4.843 0 0 1 15 4.84a4.843 4.843 0 0 1 4.84 4.836 4.846 4.846 0 0 1-4.84 4.84zm1.816 1.21a6.66 6.66 0 0 1 6.653 6.653v2.394a14.459 14.459 0 0 1-.813.617l-.164.118a13.358 13.358 0 0 1-.988.61c-.297.167-.598.323-.906.464l-.098.047a13.43 13.43 0 0 1-3.152.984c-.035.004-.067.012-.102.016a13.26 13.26 0 0 1-1.039.137l-.145.011a13.72 13.72 0 0 1-1.062.047c-.355 0-.71-.02-1.063-.047l-.144-.011a13.26 13.26 0 0 1-1.04-.137c-.034-.008-.066-.012-.1-.02a13.25 13.25 0 0 1-3.153-.984 11.657 11.657 0 0 1-1.16-.598 15.495 15.495 0 0 1-.832-.52l-.164-.116c-.25-.18-.496-.364-.735-.559-.023-.02-.05-.039-.078-.059V22.38a6.66 6.66 0 0 1 6.653-6.652zm7.86 7.907v-1.254c0-3.793-2.7-6.969-6.278-7.703a6.043 6.043 0 0 0 2.649-5A6.054 6.054 0 0 0 15 3.629a6.054 6.054 0 0 0-6.047 6.047c0 2.078 1.05 3.91 2.649 5-3.579.734-6.278 3.91-6.278 7.703v1.254a13.236 13.236 0 0 1-3.629-9.117C1.695 7.18 7.665 1.21 15 1.21c7.336 0 13.305 5.969 13.305 13.305 0 3.527-1.38 6.734-3.63 9.117zm0 0"/></g></svg>